<?xml version="1.0" standalone="no"?>
<!DOCTYPE svg PUBLIC "-//W3C//DTD SVG 20010904//EN"
 "http://www.w3.org/TR/2001/REC-SVG-20010904/DTD/svg10.dtd">
<svg version="1.0" xmlns="http://www.w3.org/2000/svg"
 width="348.000000pt" height="297.000000pt" viewBox="0 0 348.000000 297.000000"
 preserveAspectRatio="xMidYMid meet">

<g transform="translate(0.000000,297.000000) scale(0.100000,-0.100000)"
fill="#fff" stroke="none">
<path d="M734 2867 c-33 -40 -203 -237 -377 -440 -175 -202 -317 -372 -317
-377 0 -9 138 -174 445 -535 67 -78 818 -965 940 -1110 233 -276 297 -350 305
-350 10 0 1690 1983 1690 1994 0 5 -59 78 -132 162 -481 561 -565 658 -596
691 l-36 38 -930 -1 -931 -1 -61 -71z m931 4 c-17 -16 -95 -88 -175 -162 -164
-150 -491 -453 -591 -546 -37 -35 -69 -63 -73 -63 -3 0 -6 180 -6 400 l0 400
437 0 438 0 -30 -29z m975 -372 c0 -224 -4 -399 -9 -397 -6 2 -528 482 -826
760 l-40 37 438 1 437 0 0 -401z m-722 209 c103 -95 299 -276 435 -403 l249
-230 -436 -3 c-240 -1 -632 -1 -872 0 l-437 3 434 402 c239 221 436 402 437
403 2 0 88 -77 190 -172z m-1135 -247 l2 -391 -344 0 c-327 0 -343 1 -329 18
38 43 368 426 508 589 85 100 156 180 158 178 2 -2 4 -179 5 -394z m2222 24
c165 -191 313 -363 328 -382 l29 -33 -344 2 -343 3 -2 380 c-2 209 0 387 3
395 5 13 7 13 17 -1 7 -8 147 -172 312 -364z m-2205 -464 c0 -5 41 -96 91
-203 134 -284 164 -348 239 -508 65 -141 316 -674 447 -953 36 -76 64 -139 62
-141 -4 -3 -216 247 -1197 1407 -145 172 -276 326 -290 342 -63 72 -94 65 297
65 207 0 351 -4 351 -9z m1814 -23 c-10 -18 -108 -226 -219 -463 -111 -236
-304 -649 -430 -918 -125 -268 -231 -487 -235 -487 -4 0 -94 186 -200 413
-107 226 -216 459 -243 517 -27 58 -133 283 -234 500 -102 217 -194 412 -204
433 l-19 37 900 0 901 0 -17 -32z m734 15 c-8 -10 -217 -256 -464 -548 -246
-291 -570 -673 -718 -849 -149 -175 -287 -338 -305 -362 -19 -24 -37 -42 -39
-39 -2 2 77 176 176 387 99 211 284 606 412 878 128 272 239 507 246 523 l15
27 346 0 c329 0 345 -1 331 -17z"/>
<path d="M1250 1720 l0 -190 115 0 c108 0 115 1 115 20 0 19 -7 20 -95 20
l-95 0 0 170 c0 163 -1 170 -20 170 -19 0 -20 -7 -20 -190z"/>
<path d="M1557 1896 c-3 -8 -5 -75 -4 -149 3 -144 10 -169 62 -203 33 -21 122
-21 164 0 51 27 61 64 61 226 0 131 -1 140 -19 140 -17 0 -19 -11 -23 -144 -3
-137 -5 -146 -27 -170 -19 -20 -34 -26 -67 -26 -93 0 -104 23 -104 205 0 126
-1 135 -19 135 -10 0 -21 -6 -24 -14z"/>
<path d="M2029 1883 c-19 -49 -119 -341 -119 -348 0 -3 10 -5 22 -3 17 2 26
15 37 51 17 55 27 59 120 55 l64 -3 17 -50 c12 -37 22 -51 38 -53 13 -2 22 2
21 10 0 7 -28 92 -62 188 l-62 175 -33 3 c-27 3 -34 -1 -43 -25z m73 -101 c15
-42 30 -85 33 -94 6 -16 0 -18 -57 -18 -36 0 -67 2 -70 5 -6 6 54 185 62 185
3 0 17 -35 32 -78z"/>
</g>
</svg>
